<?xml version="1.0" standalone="no"?>
<!DOCTYPE svg PUBLIC "-//W3C//DTD SVG 20010904//EN"
 "http://www.w3.org/TR/2001/REC-SVG-20010904/DTD/svg10.dtd">
<svg version="1.0" xmlns="http://www.w3.org/2000/svg"
 width="1252.000000pt" height="832.000000pt" viewBox="0 0 1252.000000 832.000000"
 preserveAspectRatio="xMidYMid meet">

<g transform="translate(0.000000,832.000000) scale(0.100000,-0.100000)"
fill="#000000" stroke="none">
<path d="M2147 8178 c-25 -79 -288 -1094 -584 -2257 l-537 -2114 -66 -123 -66
-123 -19 -178 c-10 -98 -19 -184 -19 -192 -1 -11 13 -15 52 -15 l53 -1 -2 190
c-2 187 -2 191 29 285 65 202 233 802 406 1450 20 74 54 198 76 275 22 77 54
196 71 264 17 69 39 140 50 160 10 20 19 50 19 67 0 23 5 33 19 37 12 3 22 -1
25 -9 6 -16 -3 -44 -14 -44 -10 0 -24 -37 -51 -135 -11 -43 -23 -86 -26 -95
-3 -8 2 -5 11 8 10 12 19 33 22 46 2 13 11 40 20 61 8 21 16 50 16 66 1 16 5
26 9 23 12 -7 18 9 39 110 11 52 24 103 30 113 6 10 28 92 49 183 50 215 111
458 208 835 8 33 19 78 23 100 4 22 21 94 38 160 30 117 103 415 137 565 9 41
23 102 31 135 7 33 26 113 42 178 l29 117 -37 0 -37 0 -46 -142z m-1185 -4569
c-11 -25 -23 -60 -27 -79 -23 -115 -44 -151 -24 -44 5 32 22 85 36 116 31 67
43 72 15 7z m-37 -264 c-15 -59 -14 -32 1 55 5 25 10 36 12 25 1 -11 -4 -47
-13 -80z m-28 -2 c-3 -10 -5 -4 -5 12 0 17 2 24 5 18 2 -7 2 -21 0 -30z m-20
-135 c-3 -8 -6 -5 -6 6 -1 11 2 17 5 13 3 -3 4 -12 1 -19z"/>
<path d="M2747 8283 c-28 -65 -64 -190 -116 -398 -27 -110 -70 -281 -95 -380
-102 -396 -587 -2387 -765 -3135 -186 -785 -240 -1033 -276 -1274 -23 -155
-37 -227 -42 -223 -2 3 3 45 11 93 8 49 20 139 26 199 5 61 12 130 15 155 9
84 -62 -174 -75 -271 -16 -116 -25 -137 -35 -78 -4 24 -11 51 -16 60 -5 10 -3
29 3 47 18 47 2 81 -46 97 -39 14 -125 10 -157 -6 -9 -5 -21 -3 -27 3 -9 9
-12 7 -12 -9 0 -17 8 -23 43 -28 23 -4 50 -16 60 -26 10 -11 23 -17 29 -13 5
4 2 -5 -7 -20 -10 -14 -13 -26 -9 -27 5 0 -2 -5 -15 -10 -17 -6 -28 -6 -39 3
-26 22 2 -23 32 -51 29 -28 47 -21 27 11 -11 18 -10 23 16 44 l28 23 22 -22
c29 -30 31 -74 5 -124 -12 -23 -22 -55 -23 -70 -1 -20 -4 -14 -13 22 -10 41
-13 46 -19 29 -4 -12 -5 -28 -1 -37 3 -9 2 -23 -4 -32 -6 -12 -9 4 -9 50 0 38
-6 70 -12 74 -6 4 -27 5 -47 3 -31 -4 -35 -7 -29 -26 12 -39 11 -283 -1 -318
l-12 -33 -11 28 c-6 16 -11 39 -11 53 0 19 -8 29 -37 41 -26 11 -42 12 -53 5
-11 -6 -43 -7 -91 -1 -41 4 -77 8 -81 9 -5 0 -8 7 -8 15 0 17 -51 18 -83 2
-31 -15 -67 0 -67 28 0 36 -17 31 -66 -20 -23 -25 -47 -45 -53 -45 -6 0 -11
-12 -11 -26 0 -38 -22 -24 -26 16 -9 95 -11 192 -5 259 5 56 4 74 -6 78 -24 9
-43 -18 -43 -63 0 -23 -4 -45 -8 -48 -5 -3 -7 9 -6 27 l3 32 -8 -30 c-4 -16
-6 -43 -4 -60 4 -24 2 -27 -7 -15 -21 27 -5 -423 20 -563 28 -160 32 -168 72
-163 18 3 54 10 80 16 58 15 78 8 78 -25 0 -14 5 -25 10 -25 6 0 10 4 10 8 0
5 11 14 25 20 20 9 29 9 43 -3 9 -7 46 -33 82 -58 36 -24 67 -52 68 -61 4 -17
-2 -18 -65 -11 -37 5 -84 9 -103 11 -19 1 -38 3 -42 3 -4 1 -11 19 -14 41 -6
37 -24 57 -24 27 0 -8 -10 -23 -22 -34 -20 -18 -41 -22 -148 -27 -176 -9 -177
-10 -191 -57 -7 -21 -21 -47 -33 -56 -20 -18 -20 -18 -5 7 9 14 24 46 34 72
14 37 32 59 83 98 58 45 62 50 38 50 -36 0 -56 -11 -151 -85 -113 -88 -208
-215 -274 -367 l-51 -117 0 -168 c0 -151 3 -184 30 -308 l31 -138 75 -83 c62
-68 93 -93 178 -141 l104 -58 -5 -52 c-4 -38 -1 -59 10 -76 20 -31 11 -66 -18
-73 -19 -5 -24 -15 -30 -57 -10 -79 -13 -84 -50 -91 -31 -6 -38 -15 -94 -122
-59 -111 -72 -161 -53 -192 7 -9 82 -12 343 -10 l334 3 -63 23 c-34 13 -66 20
-72 17 -5 -3 -23 1 -39 10 -30 15 -171 22 -171 8 0 -3 7 -15 17 -25 14 -16 14
-18 0 -18 -8 0 -37 11 -64 24 -108 54 -143 66 -164 55 -18 -9 -59 -1 -59 12 0
4 18 29 40 54 22 25 40 54 40 65 0 18 62 80 80 80 14 0 13 -2 -15 -40 -31 -42
-33 -80 -6 -80 11 0 23 -4 26 -10 18 -29 70 16 90 79 8 26 49 37 81 22 20 -9
24 -18 24 -55 0 -42 26 -106 43 -106 15 0 6 -29 -10 -32 -10 -2 3 -8 29 -12
27 -4 48 -13 48 -19 0 -7 4 -6 10 3 6 10 4 20 -8 33 -16 18 -16 20 1 32 9 7
16 21 16 31 -5 56 2 104 15 104 28 0 56 -50 56 -100 0 -31 5 -52 16 -61 8 -7
24 -29 34 -50 18 -34 37 -49 61 -49 6 0 5 8 -1 20 -6 11 -12 57 -14 102 -1 46
-5 93 -9 106 -3 12 -1 22 5 22 17 0 78 -67 79 -86 1 -40 8 -105 14 -134 5 -23
12 -30 31 -30 l25 0 -7 87 c-6 75 -11 90 -30 106 -20 15 -21 21 -12 47 5 17
13 30 16 30 12 0 54 -32 158 -116 55 -45 132 -98 172 -118 l72 -36 287 0 287
0 27 26 c23 22 50 30 184 54 87 16 161 32 166 37 22 22 119 285 119 322 0 45
1 45 47 32 21 -6 70 -4 145 5 62 7 115 14 118 14 40 1 444 363 721 647 85 86
108 116 113 145 4 21 2 46 -4 57 -14 28 -15 27 38 62 26 18 80 68 121 111 40
43 76 77 78 74 3 -3 -10 -66 -28 -140 l-33 -136 22 -137 c26 -161 30 -166 152
-234 l79 -44 -37 -38 -36 -37 60 -63 c34 -34 106 -116 162 -183 l100 -121 17
-114 c9 -63 30 -165 47 -226 l31 -113 1579 0 1578 0 0 39 c0 21 -13 117 -30
213 -16 95 -30 188 -30 207 0 30 2 32 16 20 9 -7 20 -22 25 -34 5 -11 13 -27
18 -35 19 -31 71 -310 71 -382 l0 -28 69 0 70 0 -9 28 c-6 15 -19 73 -30 130
-32 164 -25 247 20 235 12 -3 20 0 20 8 0 38 12 -13 35 -147 14 -82 30 -173
36 -201 l10 -53 2005 0 c1102 0 2004 3 2004 8 0 4 -7 35 -15 69 -8 34 -21 110
-30 170 -9 59 -27 148 -42 197 -24 83 -40 239 -23 220 10 -12 40 -103 41 -128
1 -12 4 -7 8 12 3 18 11 33 16 34 33 3 80 -175 121 -460 l18 -122 48 0 c37 0
48 4 48 16 0 8 -13 77 -30 152 -16 75 -37 180 -47 232 -18 98 -20 214 -4 234
5 6 11 20 13 31 2 11 10 -14 17 -55 7 -41 21 -111 31 -155 10 -44 30 -152 45
-240 14 -88 28 -172 31 -188 l6 -27 209 0 209 0 0 2190 c0 1852 -2 2190 -14
2190 -50 0 -80 -15 -112 -59 -29 -39 -34 -54 -34 -103 0 -53 -2 -59 -30 -73
-16 -8 -38 -15 -50 -15 -12 0 -34 -6 -49 -14 l-28 -15 -12 -163 c-6 -90 -13
-181 -14 -203 l-2 -40 -51 -6 c-58 -7 -93 -22 -75 -33 6 -4 11 -34 11 -71 0
-67 -6 -75 -57 -75 -18 0 -24 -4 -20 -15 10 -26 -25 -55 -76 -61 l-48 -7 2 34
c3 38 -17 83 -32 73 -6 -3 -14 -17 -19 -30 -6 -16 -20 -27 -40 -30 -18 -4 -37
-18 -49 -38 -11 -17 -34 -50 -50 -74 -17 -23 -31 -55 -31 -71 0 -35 -57 -111
-85 -111 -11 0 -40 -6 -65 -14 -60 -18 -253 -39 -282 -31 -18 5 -20 4 -8 -4
11 -8 1 -11 -41 -11 -39 0 -61 -5 -70 -16 -19 -23 1 -49 37 -49 34 -1 40 -19
29 -102 -6 -50 -8 -53 -35 -53 -20 0 -31 6 -35 20 -6 20 -14 23 -51 21 -13 -1
-24 7 -32 24 -6 14 -17 25 -24 25 -146 -5 -270 -21 -309 -40 -52 -26 -149 -97
-167 -121 -7 -10 -18 -24 -25 -31 -37 -38 -57 -87 -57 -141 0 -59 -1 -61 -60
-102 -65 -45 -78 -50 -97 -33 -10 9 -42 18 -71 20 -48 5 -55 3 -77 -23 -19
-24 -36 -31 -86 -38 -43 -5 -68 -14 -79 -28 -8 -11 -52 -47 -97 -80 -61 -46
-93 -62 -128 -67 -27 -4 -53 -16 -63 -27 -25 -29 -32 -23 -32 31 0 36 -15 89
-56 197 -31 81 -63 168 -70 192 l-14 44 85 97 c73 85 90 111 125 200 l41 103
-21 70 c-12 38 -46 121 -76 185 l-54 115 -95 -5 -96 -5 -21 41 c-76 151 -240
359 -405 515 -92 86 -148 129 -256 195 -181 110 -431 219 -580 252 -120 27
-340 53 -448 54 l-66 0 -17 43 c-9 23 -30 60 -48 81 l-31 38 -102 -4 -101 -5
9 51 c22 122 38 159 84 206 96 96 97 116 6 90 -38 -10 -85 -26 -105 -34 -49
-21 -55 -20 -61 6 -9 32 15 62 67 87 25 11 46 24 46 27 0 3 -26 3 -57 -1 -55
-6 -120 3 -176 24 l-25 10 19 73 c82 320 24 619 -162 823 -29 31 -71 69 -95
85 l-42 30 -6 87 c-4 49 -16 135 -28 193 -17 78 -22 134 -20 218 2 118 -14
228 -43 284 -9 19 -15 58 -15 99 0 37 -5 71 -11 74 -6 4 -8 14 -5 22 4 8 -7
27 -24 45 -32 32 -30 32 -143 12 -26 -4 -44 -1 -62 10 -27 18 -120 22 -130 6
-3 -5 -39 -10 -80 -10 l-74 0 -38 -47 c-33 -40 -40 -58 -55 -142 -15 -84 -21
-99 -47 -121 -35 -29 -81 -157 -100 -278 -8 -48 -25 -100 -51 -153 -22 -43
-45 -103 -51 -131 -6 -29 -17 -57 -23 -63 -7 -5 -14 -13 -14 -17 -4 -18 -8
-30 -15 -48 -24 -63 -40 -332 -24 -397 8 -29 6 -33 -12 -33 -11 0 -23 -4 -26
-10 -3 -5 3 -10 14 -10 29 0 34 -14 33 -103 -1 -46 3 -86 10 -94 6 -7 14 -28
17 -45 5 -24 24 -47 71 -85 36 -29 80 -58 98 -64 17 -6 32 -14 32 -19 0 -5 15
-21 34 -35 25 -19 51 -28 93 -31 32 -3 67 -11 79 -19 11 -7 34 -15 50 -17 23
-2 30 -9 36 -38 10 -47 -4 -72 -55 -97 -169 -84 -219 -105 -272 -113 -121 -20
-170 -10 -262 49 -58 37 -59 39 -55 77 3 21 12 44 20 50 11 8 14 24 10 63 -3
29 0 82 7 117 7 36 10 77 7 91 -3 16 -1 24 5 20 19 -12 21 45 5 96 -14 43 -17
47 -28 32 -11 -15 -13 -15 -19 4 -3 12 -10 21 -15 21 -5 0 -14 16 -21 35 -7
19 -17 35 -22 35 -5 0 -7 7 -5 17 2 9 28 26 63 39 33 13 54 23 48 23 -7 1 -35
-7 -62 -18 l-50 -19 -6 72 c-10 108 -12 207 -4 251 l7 40 -19 -24 c-100 -123
-199 -409 -225 -646 l-6 -60 -20 43 c-31 65 -77 95 -152 100 -55 3 -65 1 -103
-27 -67 -49 -91 -130 -59 -203 8 -18 17 -45 21 -60 6 -30 60 -98 79 -98 8 0
11 -45 11 -153 1 -146 2 -154 27 -197 15 -25 43 -75 62 -112 20 -36 40 -69 46
-73 6 -4 8 -27 5 -58 -13 -118 -11 -114 -78 -153 -34 -20 -101 -65 -149 -101
-68 -50 -97 -66 -130 -69 -24 -3 -57 -6 -74 -8 l-30 -4 -13 176 c-9 140 -18
200 -42 287 -17 61 -36 115 -42 121 -18 17 -121 34 -206 34 l-76 0 -26 -38
c-14 -20 -32 -53 -38 -73 -14 -43 -28 -49 -121 -49 -356 -1 -685 -92 -970
-267 -266 -163 -576 -478 -723 -734 l-26 -46 -58 15 c-35 9 -72 13 -93 9 -33
-7 -40 -15 -98 -120 -34 -61 -62 -123 -62 -136 0 -84 71 -228 194 -396 44 -60
44 -60 27 -90 -9 -16 -43 -99 -76 -183 l-60 -154 -65 -33 c-66 -34 -115 -83
-124 -126 -3 -13 -13 -86 -21 -162 l-16 -137 25 -37 c20 -29 23 -39 13 -53
-75 -103 -217 -225 -252 -216 -11 3 -69 6 -129 6 l-110 0 40 29 c88 65 176
206 197 317 25 124 32 260 15 266 -8 3 -64 11 -126 18 l-112 13 0 44 c0 61 87
368 177 623 l76 214 3 211 2 210 416 2070 c229 1139 425 2131 436 2205 21 145
36 290 28 290 -2 0 -12 -17 -21 -37z m2428 -2793 c1 -15 -7 -30 -20 -37 -18
-12 -15 -13 24 -11 32 2 47 -3 57 -16 18 -25 12 -32 -43 -45 -33 -9 -59 -24
-85 -52 -21 -22 -43 -37 -48 -34 -17 10 -11 58 10 90 25 38 25 47 -2 43 -35
-5 -32 21 7 58 29 27 44 34 69 32 25 -2 31 -7 31 -28z m385 -154 c0 -21 -11
-46 -19 -42 -3 2 -7 -8 -8 -22 0 -14 -12 -34 -25 -44 -24 -18 -68 -25 -68 -9
0 17 46 76 67 86 12 5 24 17 26 27 6 21 27 24 27 4z m-340 -73 c24 -21 26 -46
4 -63 -13 -11 -19 -10 -36 8 -19 18 -20 25 -10 47 14 30 16 30 42 8z m335
-287 c24 -24 42 -72 32 -82 -3 -3 -26 8 -51 26 -56 38 -62 74 -13 79 4 1 19
-10 32 -23z m-386 -30 c-7 -14 -16 -26 -21 -26 -5 0 -1 14 7 31 20 37 31 33
14 -5z m881 -64 c31 -25 37 -115 15 -223 -12 -60 -15 -105 -10 -155 6 -62 4
-78 -15 -114 -43 -84 -169 -95 -252 -22 -32 27 -23 94 22 181 22 42 53 110 70
152 33 82 112 199 134 199 8 0 24 -8 36 -18z m-688 -9 c21 -19 117 -55 129
-48 4 3 10 1 14 -5 3 -5 18 -10 33 -10 43 0 74 -12 68 -25 -2 -7 4 -26 13 -42
21 -33 74 -53 140 -53 43 0 52 -15 20 -31 -115 -56 -220 -99 -243 -99 -81 0
-182 67 -217 145 -24 51 -25 147 -3 169 19 20 23 20 46 -1z m1288 -43 c-13
-25 -64 -60 -87 -60 -13 0 -10 5 13 19 17 10 36 33 44 50 10 25 15 29 26 20
10 -8 11 -16 4 -29z m-230 -15 c14 -19 14 -19 -2 -6 -10 7 -18 18 -18 24 0 6
1 8 3 6 1 -2 9 -13 17 -24z m94 -255 c72 0 85 -22 35 -59 -41 -30 -127 -42
-171 -24 -39 17 -35 12 -43 46 -7 25 -3 29 35 46 38 17 46 17 76 5 18 -8 49
-14 68 -14z m579 -167 c-9 -27 -17 -49 -19 -51 -1 -2 -16 4 -33 13 l-32 16 48
33 c26 19 49 34 50 35 1 1 -5 -20 -14 -46z m-1617 -135 l19 -23 -25 20 c-14
11 -27 21 -29 22 -2 2 0 3 6 3 5 0 18 -10 29 -22z m242 -75 c5 -47 -43 -133
-74 -133 -7 0 -16 10 -20 23 -7 21 -7 21 -14 3 -6 -18 -11 -16 -51 23 l-44 42
44 -21 c35 -18 45 -19 52 -8 5 7 9 18 9 23 0 6 14 27 31 48 37 45 63 45 67 0z
m-138 -8 c19 -14 27 -25 19 -25 -14 0 -59 35 -59 45 0 8 5 6 40 -20z m194 9
c9 -8 16 -18 16 -20 0 -7 -38 15 -45 26 -10 16 12 12 29 -6z m482 -69 c16 -25
15 -45 -6 -99 -11 -30 -32 -26 -49 10 -21 47 -7 114 24 114 8 0 22 -11 31 -25z
m-378 -65 c52 -12 65 -23 37 -34 -8 -3 -15 -12 -15 -21 0 -8 -6 -15 -12 -15
-9 0 -8 -4 2 -11 23 -16 -54 -2 -122 23 -61 22 -67 28 -43 48 8 7 15 26 15 42
l0 29 43 -25 c23 -14 66 -30 95 -36z m-80 -147 c-10 -2 -26 -2 -35 0 -10 3 -2
5 17 5 19 0 27 -2 18 -5z m-3927 -186 c-8 -61 -17 -157 -21 -212 -4 -56 -17
-127 -28 -160 -11 -33 -35 -111 -53 -173 -33 -115 -53 -151 -25 -45 30 115 58
277 66 388 11 145 49 340 64 325 7 -7 6 -44 -3 -123z m-64 -39 c-3 -8 -6 -5
-6 6 -1 11 2 17 5 13 3 -3 4 -12 1 -19z m-15 -128 c-20 -114 -63 -309 -93
-420 -16 -63 -33 -126 -35 -140 -3 -14 -17 -77 -32 -140 l-27 -115 -3 59 c-2
33 1 71 7 85 5 14 13 46 16 71 4 25 18 81 32 125 37 114 42 144 53 293 7 101
13 140 28 165 11 18 28 55 38 82 18 47 19 48 22 20 2 -17 -1 -55 -6 -85z
m9765 -396 c-3 -3 -12 -4 -19 -1 -8 3 -5 6 6 6 11 1 17 -2 13 -5z m-9880 -316
c-3 -8 -6 -5 -6 6 -1 11 2 17 5 13 3 -3 4 -12 1 -19z m-230 -10 c-3 -8 -6 -5
-6 6 -1 11 2 17 5 13 3 -3 4 -12 1 -19z m199 -94 c-8 -21 -15 -34 -15 -28 -1
15 20 76 25 71 2 -2 -2 -21 -10 -43z m-29 -26 c-3 -8 -6 -5 -6 6 -1 11 2 17 5
13 3 -3 4 -12 1 -19z m7 -42 c-3 -12 -13 -28 -21 -36 -14 -13 -15 -12 -9 10 3
14 6 30 6 36 0 6 7 11 15 11 11 0 13 -6 9 -21z m-74 -81 c7 -9 8 -15 2 -15 -5
0 -12 7 -16 15 -3 8 -4 15 -2 15 2 0 9 -7 16 -15z m3850 -248 c216 -185 400
-366 400 -392 0 -21 -62 -11 -120 19 -30 16 -57 31 -60 35 -3 3 -27 12 -55 19
-56 15 -136 64 -204 127 -25 23 -62 52 -81 65 -19 13 -58 43 -87 67 -29 24
-65 50 -80 58 -27 14 -29 14 -91 -48 -62 -61 -63 -62 -90 -47 -15 9 -27 24
-27 35 0 12 37 52 95 103 52 46 94 88 92 94 -1 5 1 7 6 4 5 -3 22 8 37 24 16
17 31 30 34 30 4 0 107 -87 231 -193z m1110 179 c25 -10 24 -76 -2 -103 -28
-30 -48 -29 -104 6 -41 25 -51 27 -83 19 -20 -6 -44 -17 -54 -26 -10 -9 -35
-16 -57 -17 -21 0 -36 -3 -33 -8 5 -9 -38 -26 -53 -20 -15 5 -34 79 -34 128
l0 36 203 -5 c111 -2 209 -7 217 -10z m-1597 -310 c97 -95 177 -177 177 -182
0 -19 -87 -7 -128 18 -23 13 -103 83 -177 154 l-136 129 33 27 c18 15 38 28
43 28 6 0 90 -78 188 -174z m1745 -97 c0 -76 -4 -139 -8 -139 -10 0 -18 -31
-13 -47 2 -7 11 -9 19 -6 34 13 10 -35 -35 -69 -52 -40 -67 -45 -73 -26 -3 7
-12 9 -24 4 -18 -7 -18 -8 5 -20 l24 -13 -23 -16 c-21 -14 -25 -15 -34 -1 -10
12 -17 13 -41 4 -29 -11 -30 -12 -10 -27 19 -14 18 -15 -20 -9 -22 3 -53 6
-70 6 -24 0 -27 2 -15 11 11 8 0 9 -40 6 -112 -10 -220 25 -220 69 0 7 -10 16
-22 19 -48 15 -90 75 -53 75 19 0 19 27 0 60 -19 33 -19 89 1 111 12 13 13 22
5 38 -6 11 -11 44 -11 74 0 52 2 57 45 96 51 47 64 49 112 20 29 -18 55 -22
167 -27 127 -5 134 -4 155 17 46 46 61 44 122 -16 l57 -55 0 -139z m-3222 179
c13 -23 11 -51 -8 -100 -17 -45 -172 -164 -244 -188 -25 -9 -41 -8 -70 5 -66
27 -72 38 -70 118 3 87 24 134 64 143 15 3 39 12 54 20 14 8 39 14 55 15 15 0
37 4 48 9 11 5 51 7 89 5 60 -3 71 -7 82 -27z m7499 -60 c154 -10 171 -14 192
-34 30 -31 22 -48 -43 -84 -29 -17 -56 -36 -60 -41 -3 -6 13 -29 35 -51 56
-53 52 -72 -19 -78 -78 -7 -377 3 -387 14 -4 4 8 20 27 35 82 62 93 76 82 98
-10 18 -136 87 -172 94 -31 6 -101 -13 -135 -37 -20 -13 -42 -24 -50 -24 -8 0
-21 -13 -29 -29 -14 -26 -14 -30 8 -50 12 -11 27 -21 32 -21 5 0 34 -15 63
-34 l53 -34 -54 -10 c-29 -6 -98 -13 -153 -17 -147 -8 -348 -33 -499 -60 -43
-8 -101 -15 -130 -15 l-51 1 77 72 c42 40 74 78 71 84 -8 22 -93 53 -148 55
-40 2 -57 -2 -71 -17 -16 -15 -16 -18 -3 -13 11 4 29 -4 49 -22 l32 -28 -21
-21 c-24 -24 -99 -29 -119 -9 -9 9 -12 7 -12 -10 0 -12 -4 -22 -9 -22 -13 0
-21 26 -21 66 0 19 -5 34 -10 34 -15 0 -91 -82 -87 -94 6 -18 67 -46 105 -49
20 -1 42 -5 47 -8 6 -4 22 -9 38 -13 15 -3 27 -10 27 -15 0 -12 -93 -42 -230
-76 -141 -35 -330 -95 -476 -151 -132 -51 -259 -94 -275 -94 -20 0 20 99 53
132 26 26 16 34 -51 46 -45 8 -59 7 -78 -5 l-24 -16 26 -27 c27 -28 26 -56 -3
-64 -58 -16 -79 -16 -92 -1 -11 13 -15 13 -22 3 -7 -10 -13 -8 -25 10 l-16 23
-29 -27 c-15 -15 -28 -34 -28 -41 0 -17 53 -43 82 -41 32 3 90 -22 85 -36 -7
-24 -277 -152 -344 -163 -36 -6 -36 -6 -29 23 4 16 13 40 19 54 16 32 1 69
-31 77 -12 3 -49 6 -82 7 -55 1 -61 3 -67 24 -4 18 3 31 31 58 38 36 237 140
346 181 36 14 121 49 190 78 69 29 175 70 237 90 62 19 161 54 220 76 117 43
540 152 555 143 5 -3 14 -1 21 4 7 5 41 13 77 16 36 4 126 19 200 32 144 27
314 42 605 53 290 12 322 12 500 -1z m-6176 -90 c12 -20 12 -23 -4 -33 -46
-27 -95 -66 -95 -76 0 -5 33 -45 74 -87 41 -42 89 -96 108 -119 77 -97 136
-162 200 -217 37 -33 65 -63 62 -68 -9 -14 -43 -9 -87 14 -23 12 -51 23 -62
25 -70 9 -95 17 -113 36 -97 100 -368 402 -370 413 -2 8 1 14 7 14 6 0 59 27
118 60 59 33 117 60 128 60 11 0 26 -10 34 -22z m5832 -25 c18 -11 29 -26 29
-39 0 -24 -17 -34 -58 -34 -67 0 -88 22 -68 68 11 27 55 30 97 5z m-9437 -164
c14 -11 26 -29 26 -40 0 -16 -5 -18 -27 -13 -49 10 -55 14 -49 29 3 9 -1 18
-9 21 -23 9 -18 24 9 24 13 0 35 -9 50 -21z m10470 0 c21 -16 26 -29 26 -64 0
-56 -7 -61 -98 -66 -39 -3 -48 0 -66 24 -16 22 -18 33 -10 63 5 19 14 36 19
36 6 0 19 7 30 14 28 20 68 17 99 -7z m-10974 -19 c0 -7 13 -8 34 -5 35 7 47
0 103 -52 42 -40 19 -118 -47 -152 -56 -29 -93 -27 -115 5 l-17 26 -27 -26
c-31 -29 -50 -32 -89 -12 -15 7 -54 16 -87 19 -33 3 -84 12 -113 18 l-52 12
22 25 c40 43 90 68 213 106 66 21 125 39 130 41 21 7 45 5 45 -5z m-449 -206
c-11 -15 -21 -37 -21 -49 0 -12 -7 -45 -16 -75 -14 -47 -17 -51 -31 -37 -14
14 -13 22 6 85 23 76 57 130 74 113 6 -6 2 -19 -12 -37z m889 1 c7 -8 8 -15 2
-15 -5 0 -15 7 -22 15 -7 8 -8 15 -2 15 5 0 15 -7 22 -15z m93 -15 c3 -11 1
-23 -4 -26 -5 -3 -9 6 -9 20 0 31 6 34 13 6z m-658 -100 c14 -5 49 -10 78 -11
48 -1 82 -8 132 -30 104 -44 116 -46 158 -24 41 21 144 6 169 -25 23 -28 23
-32 -3 -64 -17 -22 -29 -26 -68 -26 -40 0 -54 6 -88 35 -47 40 -72 44 -99 14
-43 -47 -135 -74 -173 -50 -8 6 -27 3 -50 -6 -25 -11 -73 -16 -159 -17 -118
-1 -124 0 -143 23 -22 27 -24 65 -6 99 15 28 148 92 194 92 17 0 43 -4 58 -10z
m11322 -253 c42 -200 83 -421 83 -444 0 -22 -1 -22 -21 -5 -38 32 -61 95 -90
250 -30 157 -37 266 -19 277 6 3 10 16 10 27 0 45 15 3 37 -105z m-11030 -32
c14 -5 34 -71 27 -90 -9 -22 -32 -26 -197 -37 -120 -7 -162 -7 -172 2 -8 7
-12 16 -9 21 9 15 -10 9 -36 -11 -29 -23 -67 -25 -94 -5 -16 12 -17 18 -6 44
24 60 36 63 279 76 63 3 117 7 119 9 4 4 66 -2 89 -9z m10875 -22 c20 -23 33
-65 58 -187 33 -162 22 -311 -18 -244 -12 20 -13 15 -9 -44 7 -111 -8 -80 -48
97 -18 81 -55 328 -55 365 0 22 3 19 19 -15 l19 -40 1 43 c1 46 9 52 33 25z
m-10792 -12 c0 -5 3 -18 6 -28 5 -16 4 -16 -10 1 -18 23 -20 36 -6 36 6 0 10
-4 10 -9z m6698 -181 c42 0 95 -29 112 -60 15 -29 -8 -56 -56 -64 -19 -3 -49
-9 -68 -12 -29 -5 -37 -2 -50 18 -23 35 -24 93 -1 118 11 12 21 17 23 11 2 -6
20 -11 40 -11z m4280 -326 c4 -36 -8 -44 -55 -37 -26 4 -33 10 -33 27 0 31 20
47 55 44 26 -3 30 -8 33 -34z m-11208 -124 c0 -5 -14 -10 -31 -10 -17 0 -28 4
-24 10 3 6 17 10 31 10 13 0 24 -4 24 -10z m-33 -346 c-3 -3 -12 -4 -19 -1 -8
3 -5 6 6 6 11 1 17 -2 13 -5z"/>
<path d="M5100 5430 c0 -5 7 -7 15 -4 8 4 15 8 15 10 0 2 -7 4 -15 4 -8 0 -15
-4 -15 -10z"/>
<path d="M6270 2205 c-6 -7 -31 -17 -55 -21 -67 -10 -77 -28 -91 -169 -5 -48
-4 -53 36 -98 25 -28 50 -47 63 -47 12 0 39 -11 60 -24 32 -19 45 -22 80 -15
54 10 93 25 102 39 4 6 18 15 31 20 14 6 26 20 30 37 3 15 13 42 21 59 24 47
5 132 -45 202 l-23 32 -98 0 c-74 0 -102 -4 -111 -15z"/>
<path d="M12141 5041 c-23 -15 -5 -41 28 -41 20 0 30 6 34 19 3 11 2 22 -1 25
-8 9 -45 7 -61 -3z"/>
<path d="M12409 4988 c-16 -18 -32 -41 -35 -50 -3 -10 -17 -21 -32 -24 -15 -4
-33 -11 -39 -17 -20 -15 -16 -83 5 -104 11 -10 22 -26 25 -35 4 -12 17 -18 36
-18 20 0 34 -8 45 -25 17 -25 40 -30 84 -19 22 6 22 9 22 165 l0 159 -41 0
c-33 0 -46 -6 -70 -32z"/>
<path d="M11756 4788 c-18 -26 -21 -61 -6 -88 9 -17 18 -19 58 -13 57 8 73 25
69 78 l-2 40 -52 3 c-44 3 -53 0 -67 -20z"/>
<path d="M11708 3623 c6 -2 18 -2 25 0 6 3 1 5 -13 5 -14 0 -19 -2 -12 -5z"/>
<path d="M1511 3394 c0 -11 3 -14 6 -6 3 7 2 16 -1 19 -3 4 -6 -2 -5 -13z"/>
<path d="M995 3180 c-5 -8 6 -12 68 -25 27 -5 20 14 -9 25 -32 13 -51 13 -59
0z"/>
<path d="M557 3104 l-48 -76 52 45 52 45 106 7 c102 6 190 22 133 24 -13 1
-21 5 -18 10 9 14 -33 21 -134 21 l-95 0 -48 -76z"/>
<path d="M11248 3143 c6 -2 18 -2 25 0 6 3 1 5 -13 5 -14 0 -19 -2 -12 -5z"/>
<path d="M695 2830 c-3 -5 1 -10 9 -10 9 0 16 5 16 10 0 6 -4 10 -9 10 -6 0
-13 -4 -16 -10z"/>
<path d="M610 2820 c0 -5 5 -10 11 -10 5 0 7 5 4 10 -3 6 -8 10 -11 10 -2 0
-4 -4 -4 -10z"/>
<path d="M595 2750 c-3 -5 -1 -10 4 -10 6 0 11 5 11 10 0 6 -2 10 -4 10 -3 0
-8 -4 -11 -10z"/>
<path d="M11852 160 c0 -14 2 -19 5 -12 2 6 2 18 0 25 -3 6 -5 1 -5 -13z"/>
<path d="M11866 65 c3 -33 8 -62 10 -64 11 -12 11 10 -2 64 l-13 60 5 -60z"/>
</g>
</svg>
